<mxfile host="Electron" modified="2024-02-21T02:58:09.312Z" agent="Mozilla/5.0 (Windows NT 10.0; Win64; x64) AppleWebKit/537.36 (KHTML, like Gecko) draw.io/23.1.5 Chrome/120.0.6099.109 Electron/28.1.0 Safari/537.36" etag="6bXl5P4XvdyMEy-XTKss" version="23.1.5" type="device">
  <diagram name="Página-1" id="D_CGtkzZQ-iWm8SfMOg7">
    <mxGraphModel dx="1434" dy="836" grid="1" gridSize="10" guides="1" tooltips="1" connect="1" arrows="1" fold="1" page="1" pageScale="1" pageWidth="827" pageHeight="1169" math="0" shadow="0">
      <root>
        <mxCell id="0" />
        <mxCell id="1" parent="0" />
        <mxCell id="Rw6-jgoBQ3QVt8pwCllG-6" style="edgeStyle=orthogonalEdgeStyle;rounded=0;orthogonalLoop=1;jettySize=auto;html=1;strokeWidth=3;shadow=0;spacingTop=0;targetPerimeterSpacing=6;sourcePerimeterSpacing=6;" parent="1" source="Rw6-jgoBQ3QVt8pwCllG-2" target="Rw6-jgoBQ3QVt8pwCllG-3" edge="1">
          <mxGeometry relative="1" as="geometry" />
        </mxCell>
        <mxCell id="Rw6-jgoBQ3QVt8pwCllG-2" value="Dados" style="shadow=0;dashed=0;html=1;strokeColor=none;fillColor=#000000;labelPosition=center;verticalLabelPosition=bottom;verticalAlign=top;outlineConnect=0;align=center;shape=mxgraph.office.databases.database;fontFamily=Trebuchet MS;strokeWidth=3;spacingTop=0;" parent="1" vertex="1">
          <mxGeometry x="120" y="152.5" width="35" height="49" as="geometry" />
        </mxCell>
        <mxCell id="Rw6-jgoBQ3QVt8pwCllG-7" style="edgeStyle=orthogonalEdgeStyle;rounded=0;orthogonalLoop=1;jettySize=auto;html=1;strokeWidth=3;shadow=0;spacingTop=0;targetPerimeterSpacing=6;sourcePerimeterSpacing=6;" parent="1" source="Rw6-jgoBQ3QVt8pwCllG-3" target="Rw6-jgoBQ3QVt8pwCllG-4" edge="1">
          <mxGeometry relative="1" as="geometry" />
        </mxCell>
        <mxCell id="Rw6-jgoBQ3QVt8pwCllG-3" value="Pré-processamento" style="pointerEvents=1;shadow=0;dashed=0;html=1;strokeColor=none;fillColor=#000000;labelPosition=center;verticalLabelPosition=bottom;verticalAlign=top;outlineConnect=0;align=center;shape=mxgraph.office.concepts.documents;fontFamily=Trebuchet MS;strokeWidth=3;spacingTop=0;" parent="1" vertex="1">
          <mxGeometry x="280" y="150" width="46" height="54" as="geometry" />
        </mxCell>
        <mxCell id="Rw6-jgoBQ3QVt8pwCllG-8" style="edgeStyle=orthogonalEdgeStyle;rounded=0;orthogonalLoop=1;jettySize=auto;html=1;strokeWidth=3;shadow=0;spacingTop=0;targetPerimeterSpacing=6;sourcePerimeterSpacing=6;" parent="1" source="Rw6-jgoBQ3QVt8pwCllG-4" target="Rw6-jgoBQ3QVt8pwCllG-5" edge="1">
          <mxGeometry relative="1" as="geometry" />
        </mxCell>
        <mxCell id="Rw6-jgoBQ3QVt8pwCllG-4" value="Tarefa" style="pointerEvents=1;shadow=0;dashed=0;html=1;strokeColor=none;fillColor=#000000;labelPosition=center;verticalLabelPosition=bottom;verticalAlign=top;outlineConnect=0;align=center;shape=mxgraph.office.concepts.documents;fontFamily=Trebuchet MS;strokeWidth=3;spacingTop=0;" parent="1" vertex="1">
          <mxGeometry x="450" y="150" width="46" height="54" as="geometry" />
        </mxCell>
        <mxCell id="Rw6-jgoBQ3QVt8pwCllG-5" value="Análise &lt;br&gt;Quantitativa" style="pointerEvents=1;shadow=0;dashed=0;html=1;strokeColor=none;fillColor=#000000;labelPosition=center;verticalLabelPosition=bottom;verticalAlign=top;outlineConnect=0;align=center;shape=mxgraph.office.concepts.documents;fontFamily=Trebuchet MS;strokeWidth=3;spacingTop=0;" parent="1" vertex="1">
          <mxGeometry x="620" y="150" width="46" height="54" as="geometry" />
        </mxCell>
      </root>
    </mxGraphModel>
  </diagram>
</mxfile>
